
<svg width="77" height="65" viewBox="0 0 77 65" fill="none" xmlns="http://www.w3.org/2000/svg">
<path d="M62.8313 25.3774C61.8081 25.3774 60.8102 25.4977 59.8484 25.7263C59.3982 25.8333 58.9236 25.6492 58.679 25.2564C57.6715 23.638 56.5139 22.1434 55.2284 20.7975C55.113 20.6766 55.0281 20.5291 54.9817 20.3685C51.7304 9.13242 42.2334 1 31.0241 1C22.4857 1 14.9409 5.71859 10.3932 12.9332C10.1727 13.2829 9.76587 13.47 9.35652 13.4123C8.30864 13.2647 7.24064 13.1887 6.15663 13.1887C-7.73699 13.1887 -19 25.6825 -19 41.0943C-19 56.5062 -7.73699 69 6.15663 69C11.8773 69 17.1521 66.8818 21.3782 63.3139C21.7711 62.9822 22.3494 62.9822 22.7423 63.3139C26.9684 66.8818 32.2432 69 37.9639 69C46.5551 69 54.1405 64.2227 58.679 56.9323C58.9235 56.5395 59.3982 56.3554 59.8484 56.4624C60.8102 56.691 61.8081 56.8113 62.8313 56.8113C70.6565 56.8113 77 49.7746 77 41.0943C77 32.4141 70.6565 25.3774 62.8313 25.3774Z" fill="#D0E7F6"/>
<path d="M61.75 30C60.8837 30 60.0384 30.0899 59.2229 30.261C58.7968 30.3503 58.3536 30.183 58.1046 29.8259C57.2577 28.6111 56.29 27.4868 55.2189 26.4703C55.0918 26.3498 54.9968 26.1989 54.9427 26.0323C52.1124 17.3077 43.9178 11 34.25 11C26.8998 11 20.4012 14.646 16.464 20.228C16.239 20.547 15.8556 20.7165 15.4682 20.6682C14.5777 20.5572 13.6705 20.5 12.75 20.5C0.737808 20.5 -9 30.2378 -9 42.25C-9 54.2622 0.737808 64 12.75 64C17.6724 64 22.2129 62.3648 25.8579 59.608C26.237 59.3212 26.763 59.3212 27.1421 59.608C30.7871 62.3648 35.3276 64 40.25 64C47.643 64 54.1745 60.3114 58.1046 54.6742C58.3535 54.317 58.7968 54.1497 59.2229 54.239C60.0384 54.4101 60.8837 54.5 61.75 54.5C68.5155 54.5 74 49.0155 74 42.25C74 35.4845 68.5155 30 61.75 30Z" fill="#E3F1F5"/>
</svg>