
<svg width="87" height="48" viewBox="0 0 87 48" fill="none" xmlns="http://www.w3.org/2000/svg">
<path d="M13.445 18.5828C14.1756 18.1856 14.7391 17.5354 15.0281 16.7557C18.6556 6.96971 28.0314 0 39.0257 0C48.9079 0 57.4824 5.6309 61.7503 13.8766C62.5066 15.3378 64.2042 16.1033 65.8217 15.8018C66.8854 15.6036 67.9821 15.5 69.1029 15.5C78.9872 15.5 87 23.5589 87 33.5C87 43.4411 78.9872 51.5 69.1029 51.5C64.7989 51.5 60.8498 49.9721 57.7626 47.4261C56.4908 46.3773 54.6302 46.2331 53.2633 47.1546C52.5918 47.6073 51.8978 48.0289 51.1833 48.4173C50.4527 48.8145 49.8895 49.4646 49.6005 50.2443C45.973 60.0303 36.5972 67 25.6029 67C11.4628 67 1.01328e-06 55.4713 1.01328e-06 41.25C1.01328e-06 31.4541 5.43878 22.9357 13.445 18.5828Z" fill="#D0E7F6"/>
<path d="M14.2568 24.5608C14.9835 24.1549 15.5478 23.5066 15.8504 22.7312C18.7579 15.2799 26.013 10 34.5029 10C41.9952 10 48.5258 14.112 51.9554 20.1996C52.7604 21.6284 54.4504 22.3873 56.0749 22.1626C56.7079 22.0751 57.3544 22.0299 58.0114 22.0299C65.7371 22.0299 72 28.2845 72 36C72 43.7155 65.7371 49.9701 58.0114 49.9701C54.8766 49.9701 51.9826 48.9404 49.6502 47.201C48.3353 46.2204 46.4886 46.074 45.0972 46.9428C44.8217 47.1149 44.5417 47.2804 44.2573 47.4392C43.5307 47.8451 42.9665 48.4934 42.6639 49.2688C39.7564 56.7201 32.5013 62 24.0114 62C12.9594 62 4 53.0524 4 42.0149C4 34.5146 8.13718 27.9792 14.2568 24.5608Z" fill="#E3F1F5"/>
</svg>
